<svg width="720" height="900" viewBox="0 0 720 900" fill="none" xmlns="http://www.w3.org/2000/svg">
  <rect width="720" height="900" fill="#101827"/>
  <circle cx="575" cy="120" r="245" fill="#06B6D4" opacity=".30"/>
  <circle cx="160" cy="288" r="280" fill="#F59E0B" opacity=".20"/>
  <path d="M226 379c0-118 58-194 158-194 96 0 162 76 162 194v72H226v-72Z" fill="#172033"/>
  <circle cx="386" cy="367" r="128" fill="#BD845F"/>
  <path d="M244 360c29-99 87-149 174-149 65 0 109 33 132 98-46-21-92-30-138-27-65 3-121 29-168 78Z" fill="#101827"/>
  <path d="M304 594c20 30 47 45 80 45 34 0 62-15 84-45v120H304V594Z" fill="#A96F4F"/>
  <path d="M290 468c30 36 62 54 96 54s67-18 99-54" stroke="#6D3F31" stroke-width="12" stroke-linecap="round"/>
  <circle cx="334" cy="392" r="9" fill="#1F2937"/>
  <circle cx="434" cy="392" r="9" fill="#1F2937"/>
  <path d="M176 900c19-201 91-303 214-303 119 0 191 102 213 303H176Z" fill="#263247"/>
  <path d="M270 674h236l-16 226H286l-16-226Z" fill="#F8FAFC"/>
  <path d="M272 660h48l67 100 70-100h50l-16 240H288l-16-240Z" fill="#111827"/>
  <path d="M92 650c82 48 179 72 291 72 111 0 195-24 252-72v250H92V650Z" fill="#06B6D4" opacity=".52"/>
  <rect x="58" y="48" width="604" height="804" rx="56" stroke="white" opacity=".14" stroke-width="2"/>
</svg>
