<svg width="64" height="64" viewBox="0 0 120 120" fill="none" xmlns="http://www.w3.org/2000/svg">
  <defs>
    <linearGradient id="fb-ring" x1="20" y1="10" x2="100" y2="112" gradientUnits="userSpaceOnUse">
      <stop offset="0" stop-color="#F47216"/>
      <stop offset="0.42" stop-color="#F0A000"/>
      <stop offset="0.62" stop-color="#2E9E44"/>
      <stop offset="1" stop-color="#1B3A9E"/>
    </linearGradient>
    <linearGradient id="fb-swirl" x1="40" y1="34" x2="82" y2="82" gradientUnits="userSpaceOnUse">
      <stop offset="0" stop-color="#2456C8"/>
      <stop offset="1" stop-color="#12307E"/>
    </linearGradient>
  </defs>
  <circle cx="60" cy="60" r="57" fill="#FFFFFF"/>
  <circle cx="60" cy="60" r="55" stroke="url(#fb-ring)" stroke-width="6" fill="#FFFFFF"/>
  <path d="M60 20 L84 32 V54 L60 66 L36 54 V32 Z" fill="#F47216"/>
  <circle cx="60" cy="50" r="23" fill="#FFFFFF"/>
  <path d="M60 31
           C72 31 81 40 81 52
           C81 64 71 72 59 72
           C48 72 41 63 41 53
           C41 43 48 37 58 37
           C66 37 71 43 71 50
           C71 57 66 61 61 61"
        stroke="url(#fb-swirl)" stroke-width="7" stroke-linecap="round" fill="none"/>
  <circle cx="60" cy="51" r="4.5" fill="#12307E"/>
</svg>
